<?xml version="1.0" standalone="no"?>
<!DOCTYPE svg PUBLIC "-//W3C//DTD SVG 20010904//EN"
 "http://www.w3.org/TR/2001/REC-SVG-20010904/DTD/svg10.dtd">
<svg version="1.0" xmlns="http://www.w3.org/2000/svg"
 width="501.000000pt" height="500.000000pt" viewBox="0 0 501.000000 500.000000"
 preserveAspectRatio="xMidYMid meet">

<g transform="translate(0.000000,500.000000) scale(0.100000,-0.100000)"
fill="#000000" stroke="none">
<path d="M2145 3882 c-175 -59 -321 -112 -323 -119 -2 -6 53 -30 137 -58 l141
-47 0 -77 0 -78 -59 -62 c-130 -136 -180 -312 -135 -476 9 -33 16 -74 15 -91
-1 -32 18 -57 62 -78 20 -11 22 -20 27 -130 7 -156 13 -161 163 -132 56 11 70
11 74 0 11 -30 -3 -48 -52 -61 -41 -12 -54 -21 -72 -52 -12 -20 -49 -74 -82
-119 -34 -45 -61 -85 -61 -88 0 -3 13 -24 29 -47 106 -154 278 -240 476 -240
113 0 215 27 350 92 119 57 153 69 227 79 l57 7 -89 100 c-49 55 -96 99 -104
99 -11 -1 -7 10 12 39 25 38 27 48 30 176 2 75 -1 262 -5 417 l-9 280 -35 75
c-20 41 -49 89 -64 108 -27 32 -29 39 -33 146 l-4 113 115 36 c63 20 118 36
121 36 3 0 6 -68 6 -151 0 -109 -4 -155 -12 -163 -10 -9 -12 -90 -8 -371 l5
-360 5 325 5 325 3 -322 c2 -278 4 -323 17 -323 13 0 15 45 18 318 l2 317 3
-317 c1 -191 6 -318 11 -318 6 0 11 141 13 353 3 331 2 353 -16 374 -16 19
-18 37 -15 190 l4 169 -309 105 c-170 57 -312 105 -315 106 -3 0 -150 -47
-326 -105z m3 -462 c23 -11 70 -38 104 -60 78 -51 134 -68 280 -85 65 -8 131
-21 146 -29 40 -21 92 -82 93 -109 7 -305 7 -718 -1 -743 -13 -39 -46 -70 -83
-80 l-29 -7 18 34 c23 42 29 277 17 566 l-9 192 -28 30 c-36 38 -68 47 -176
56 -161 11 -270 53 -346 132 -48 49 -63 85 -44 108 15 18 8 19 58 -5z m613
-31 c49 -17 83 -53 113 -118 39 -87 46 -166 46 -524 0 -261 -3 -335 -14 -362
-15 -35 -59 -65 -96 -65 -20 0 -20 1 -5 30 14 26 15 85 13 438 l-3 409 -28 36
c-44 58 -96 79 -217 88 -58 4 -130 15 -160 25 l-55 18 140 8 c77 4 156 12 175
17 48 12 53 12 91 0z m337 -12 c4 -20 -25 -34 -40 -19 -15 15 -1 44 19 40 10
-2 19 -11 21 -21z m-902 -169 c27 -15 77 -34 111 -44 62 -17 62 -17 72 -63 5
-25 8 -47 6 -50 -10 -9 -141 24 -196 50 -63 30 -199 153 -199 180 0 8 9 29 20
47 l21 34 58 -64 c32 -35 81 -75 107 -90z m-209 -30 c32 -30 33 -130 1 -183
-18 -32 -22 -35 -31 -20 -20 37 -20 225 0 225 4 0 17 -10 30 -22z m497 -91
c27 -62 63 -94 123 -110 30 -8 43 -16 40 -27 -2 -11 -13 -14 -42 -12 -86 7
-153 69 -173 160 -9 38 -8 42 9 42 14 0 26 -16 43 -53z m127 14 c30 -30 40
-81 17 -81 -25 0 -77 39 -93 69 -20 40 -20 41 16 41 20 0 40 -10 60 -29z
m-407 -66 c27 -9 86 -21 130 -27 73 -9 84 -13 108 -43 35 -41 103 -75 151 -75
26 0 37 -4 37 -14 0 -21 -18 -30 -70 -36 -37 -4 -46 -9 -48 -27 -3 -19 1 -23
22 -23 25 0 26 -2 26 -57 0 -32 -4 -64 -8 -71 -10 -14 -464 -97 -487 -89 -12
5 -15 28 -15 125 l0 119 -40 18 c-22 10 -40 23 -40 28 0 6 18 43 40 83 30 55
40 84 40 119 l0 45 53 -29 c28 -16 74 -37 101 -46z m444 -442 c-3 -246 -7
-258 -79 -287 -116 -47 -224 24 -184 120 16 38 41 54 88 54 41 0 60 -19 55
-57 -3 -24 -8 -28 -33 -28 -26 0 -30 3 -30 29 0 38 -19 44 -41 11 -35 -53 24
-107 92 -85 63 21 84 92 44 143 -22 28 -28 107 -8 107 6 0 20 7 30 17 14 13
18 31 18 89 0 71 13 104 42 104 6 0 9 -75 6 -217z m-148 -38 c0 -33 -2 -35
-34 -35 -19 0 -53 -9 -77 -20 -67 -30 -79 -27 -79 19 l0 38 88 15 c48 9 90 16
95 17 4 0 7 -15 7 -34z"/>
<path d="M2085 2985 c-14 -13 -25 -36 -25 -50 0 -35 42 -75 78 -75 36 0 72 37
72 74 0 34 -41 76 -75 76 -14 0 -37 -11 -50 -25z m73 -48 c4 -20 -25 -34 -40
-19 -15 15 -1 44 19 40 10 -2 19 -11 21 -21z"/>
<path d="M3675 2327 c-58 -91 -206 -234 -298 -287 l-77 -45 67 -3 c38 -2 94 2
126 8 33 6 60 10 61 8 2 -2 42 -69 91 -150 l88 -148 51 42 c28 24 100 91 160
149 l110 107 -45 22 c-24 12 -80 42 -125 67 l-81 45 -21 67 c-12 38 -32 93
-45 124 l-23 55 -39 -61z"/>
<path d="M1287 2348 c-8 -18 -26 -70 -41 -115 -31 -94 -32 -94 -179 -173 l-99
-53 79 -79 c95 -97 234 -218 244 -213 3 3 40 62 82 132 108 182 90 167 167
149 73 -18 207 -21 230 -6 13 9 13 10 0 10 -24 0 -153 65 -217 108 -70 48
-156 137 -208 215 -21 31 -39 57 -41 57 -2 0 -10 -15 -17 -32z"/>
<path d="M1902 2127 l-44 -44 21 -41 c47 -93 212 -205 353 -241 239 -61 618
-13 881 112 l88 42 -43 48 c-37 42 -49 50 -88 54 -40 4 -59 -2 -170 -57 -178
-88 -253 -111 -381 -118 -194 -9 -348 46 -469 167 -36 36 -74 79 -85 94 l-20
28 -43 -44z"/>
<path d="M1355 1698 c-72 -128 -130 -239 -130 -247 0 -23 145 -115 316 -200
607 -303 1297 -309 1904 -17 121 58 283 152 334 193 l23 18 -131 234 c-71 129
-134 238 -140 244 -6 6 -33 -6 -78 -36 -38 -25 -120 -70 -182 -102 -540 -270
-1165 -237 -1687 91 -47 30 -89 54 -93 54 -3 0 -65 -104 -136 -232z m493 -93
c52 -20 71 -33 67 -43 -3 -7 -5 -18 -5 -23 0 -5 -25 1 -56 12 -31 12 -59 17
-64 13 -4 -5 -27 -68 -51 -140 l-42 -131 -29 11 c-15 6 -28 13 -28 16 0 3 22
66 48 141 l48 137 -53 26 c-53 26 -58 32 -47 60 5 13 16 10 72 -18 37 -18 100
-46 140 -61z m1499 30 c47 -33 44 -126 -7 -167 -24 -19 -23 -20 50 -43 73 -23
72 -23 54 -50 l-16 -24 -92 33 c-71 25 -97 30 -114 23 -26 -12 -26 -17 -7 -81
16 -52 14 -60 -22 -70 -15 -5 -23 -2 -27 11 -28 94 -66 249 -66 272 0 34 26
59 93 88 60 26 124 29 154 8z m-1315 -90 c3 -3 -6 -58 -19 -121 -21 -98 -23
-120 -13 -145 22 -51 89 -73 145 -47 28 12 39 45 50 143 12 116 15 125 41 125
20 0 24 -5 24 -30 0 -72 -23 -225 -36 -246 -36 -54 -130 -69 -204 -31 -90 46
-101 91 -61 260 21 86 26 97 46 97 12 0 24 -2 27 -5z m925 -45 c39 -23 51 -46
69 -122 22 -92 2 -141 -72 -184 -79 -46 -190 -30 -231 33 -13 20 -18 48 -18
114 0 84 1 89 30 120 17 17 44 37 60 45 45 20 124 17 162 -6z m-327 -37 c0
-21 -4 -23 -60 -23 l-60 0 0 -155 0 -155 -30 0 -30 0 0 155 0 155 -60 0 c-56
0 -60 1 -60 24 l0 24 150 -2 c149 -1 150 -1 150 -23z"/>
<path d="M3197 1578 c-46 -20 -48 -22 -41 -52 3 -17 11 -43 18 -58 l11 -27 65
32 c76 37 97 72 65 107 -23 25 -56 24 -118 -2z"/>
<path d="M2833 1468 c-49 -13 -73 -51 -73 -115 0 -80 20 -119 68 -134 35 -10
45 -9 78 7 21 11 46 31 57 45 17 24 18 31 6 88 -6 34 -19 71 -28 82 -21 26
-69 38 -108 27z"/>
</g>
</svg>
