<svg width="200" height="200" viewBox="0 0 200 200" xmlns="http://www.w3.org/2000/svg">
  <!-- Background circle, same treatment as the tutor icon -->
  <circle cx="100" cy="100" r="96" fill="#0F0F1A"/>
  <circle cx="100" cy="100" r="96" fill="none" stroke="#C1392B" stroke-width="3"/>

  <!-- Centered "P" mark, scaled up and repositioned from the original wordmark version -->
  <g transform="translate(58, 46) scale(1.15)">
    <!-- back stroke (dark) -->
    <path d="M28 18
             L28 118
             L46 118
             L46 78
             L58 78
             C 86 78, 100 62, 100 44
             C 100 26, 86 12, 58 12
             L34 12
             Z
             M46 30
             L56 30
             C 72 30, 80 36, 80 45
             C 80 54, 72 60, 56 60
             L46 60
             Z"
          fill="#8A8A8A"/>
    <!-- front stroke (red) -->
    <path d="M14 8
             L14 108
             L32 108
             L32 68
             L44 68
             C 72 68, 86 52, 86 34
             C 86 16, 72 2, 44 2
             L20 2
             Z
             M32 20
             L42 20
             C 58 20, 66 26, 66 35
             C 66 44, 58 50, 42 50
             L32 50
             Z"
          fill="#E74C3C"/>
  </g>
</svg>
