<svg width="200" height="200" viewBox="0 0 200 200" xmlns="http://www.w3.org/2000/svg">
  <rect x="0" y="0" width="200" height="200" fill="#ffffff" rx="100"/>

  <g transform="translate(33.02, 12) scale(0.412178)">
    <g transform="translate(0.000000,427.000000) scale(0.100000,-0.100000)">
      <path fill="#C1392B" stroke="none" d="M482 4157 l-92 -92 0 -1558 0 -1557 280 0 280 0 0 625 0 625 265 0
c285 0 411 12 578 54 411 105 713 381 808 741 30 114 38 342 15 455 -53 260
-209 471 -452 613 -85 48 -226 104 -341 133 -186 47 -288 54 -786 54 l-462 0
-93 -93z m1068 -486 c116 -24 166 -41 245 -86 161 -89 240 -245 216 -420 -26
-184 -170 -315 -413 -376 -63 -16 -125 -22 -253 -25 -93 -2 -221 -6 -282 -7
l-113 -3 0 474 0 475 253 -6 c195 -5 273 -10 347 -26z"/>
      <path fill="#3B3B3B" stroke="none" d="M2510 3740 c55 -91 105 -236 121 -347 6 -44 9 -126 5 -188 -13 -262
-110 -478 -293 -656 -101 -99 -173 -150 -293 -207 -233 -112 -465 -152 -887
-152 l-213 0 0 -625 0 -625 -60 0 -60 0 0 -150 0 -150 275 0 275 0 0 624 0
624 323 5 c232 4 344 10 400 21 325 64 566 193 737 393 271 317 306 802 83
1148 -83 128 -257 274 -405 339 l-55 25 47 -79z M950 3225 l0 -465 215 0 215
0 0 315 0 315 173 0 c163 0 380 -14 420 -26 29 -9 -23 85 -78 140 -135 134
-334 186 -716 186 l-229 0 0 -465z"/>
    </g>
  </g>
</svg>
